<svg width="25" height="24" viewBox="0 0 25 24" fill="none" xmlns="http://www.w3.org/2000/svg">
    <path d="M12.5 2C6.98 2 2.5 6.48 2.5 12C2.5 17.52 6.98 22 12.5 22C18.02 22 22.5 17.52 22.5 12C22.5 6.48 18.03 2 12.5 2Z" fill="#90A3BF"/>
    <rect x="4.5" y="4" width="16" height="16" rx="8" fill="white"/>
    <path d="M12.5 6C9.188 6 6.5 8.688 6.5 12C6.5 15.312 9.188 18 12.5 18C15.812 18 18.5 15.312 18.5 12C18.5 8.688 15.818 6 12.5 6Z" fill="#90A3BF"/>
    <rect x="8.5" y="8" width="8" height="8" rx="4" fill="white"/>
    <rect x="11.5" y="17" width="2" height="4" fill="#90A3BF"/>
    <rect x="17.5" y="11" width="4" height="2" fill="#90A3BF"/>
    <rect x="3.5" y="11" width="4" height="2" fill="#90A3BF"/>
</svg>